%TF.GenerationSoftware,KiCad,Pcbnew,9.0.2*%
%TF.CreationDate,2025-09-03T12:33:35-04:00*%
%TF.ProjectId,teensy4,7465656e-7379-4342-9e6b-696361645f70,rev?*%
%TF.SameCoordinates,Original*%
%TF.FileFunction,Soldermask,Top*%
%TF.FilePolarity,Negative*%
%FSLAX46Y46*%
G04 Gerber Fmt 4.6, Leading zero omitted, Abs format (unit mm)*
G04 Created by KiCad (PCBNEW 9.0.2) date 2025-09-03 12:33:35*
%MOMM*%
%LPD*%
G01*
G04 APERTURE LIST*
G04 Aperture macros list*
%AMRoundRect*
0 Rectangle with rounded corners*
0 $1 Rounding radius*
0 $2 $3 $4 $5 $6 $7 $8 $9 X,Y pos of 4 corners*
0 Add a 4 corners polygon primitive as box body*
4,1,4,$2,$3,$4,$5,$6,$7,$8,$9,$2,$3,0*
0 Add four circle primitives for the rounded corners*
1,1,$1+$1,$2,$3*
1,1,$1+$1,$4,$5*
1,1,$1+$1,$6,$7*
1,1,$1+$1,$8,$9*
0 Add four rect primitives between the rounded corners*
20,1,$1+$1,$2,$3,$4,$5,0*
20,1,$1+$1,$4,$5,$6,$7,0*
20,1,$1+$1,$6,$7,$8,$9,0*
20,1,$1+$1,$8,$9,$2,$3,0*%
G04 Aperture macros list end*
%ADD10O,3.600000X2.080000*%
%ADD11RoundRect,0.249999X-1.550001X0.790001X-1.550001X-0.790001X1.550001X-0.790001X1.550001X0.790001X0*%
%ADD12RoundRect,0.250001X1.149999X1.149999X-1.149999X1.149999X-1.149999X-1.149999X1.149999X-1.149999X0*%
%ADD13C,2.800000*%
%ADD14C,1.734000*%
%ADD15C,2.400000*%
%ADD16R,1.650000X1.650000*%
%ADD17C,1.650000*%
%ADD18C,1.600000*%
%ADD19RoundRect,0.249999X-0.790001X-1.550001X0.790001X-1.550001X0.790001X1.550001X-0.790001X1.550001X0*%
%ADD20O,2.080000X3.600000*%
%ADD21C,1.100000*%
%ADD22R,1.730000X2.030000*%
%ADD23O,1.730000X2.030000*%
%ADD24R,1.700000X1.700000*%
%ADD25C,1.700000*%
%ADD26RoundRect,0.249999X1.550001X-0.790001X1.550001X0.790001X-1.550001X0.790001X-1.550001X-0.790001X0*%
G04 APERTURE END LIST*
D10*
%TO.C,DI4*%
X171277500Y-82535000D03*
D11*
X171277500Y-77455000D03*
%TD*%
D12*
%TO.C,L2*%
X81250000Y-36282500D03*
D13*
X76250000Y-36282500D03*
%TD*%
D14*
%TO.C,U1*%
X141880000Y-46780000D03*
X141880000Y-49320000D03*
X141880000Y-51860000D03*
X141880000Y-54400000D03*
X157120000Y-49320000D03*
X141880000Y-56940000D03*
X141880000Y-59480000D03*
X141880000Y-62020000D03*
X141880000Y-64560000D03*
X141880000Y-67100000D03*
X141880000Y-69640000D03*
X141880000Y-72180000D03*
X141880000Y-74720000D03*
X141880000Y-77260000D03*
X157120000Y-77260000D03*
X157120000Y-74720000D03*
X157120000Y-72180000D03*
X157120000Y-69640000D03*
X157120000Y-67100000D03*
X157120000Y-64560000D03*
X157120000Y-62020000D03*
X157120000Y-59480000D03*
X157120000Y-56940000D03*
X157120000Y-54400000D03*
X157120000Y-51860000D03*
X141880000Y-44240000D03*
X157120000Y-46780000D03*
X157120000Y-44240000D03*
%TD*%
D15*
%TO.C,RD6*%
X115000000Y-117870000D03*
X115000000Y-102630000D03*
%TD*%
D12*
%TO.C,L4*%
X51750000Y-120032500D03*
D13*
X46750000Y-120032500D03*
%TD*%
D16*
%TO.C,DRV4*%
X61620000Y-81880000D03*
D17*
X59080000Y-81880000D03*
X56540000Y-81880000D03*
X54000000Y-81880000D03*
X51460000Y-81880000D03*
X48920000Y-81880000D03*
X46380000Y-81880000D03*
X46380000Y-97120000D03*
X48920000Y-97120000D03*
X51460000Y-97120000D03*
X54000000Y-97120000D03*
X56540000Y-97120000D03*
X59080000Y-97120000D03*
X61620000Y-97120000D03*
%TD*%
D18*
%TO.C,RT2*%
X125920000Y-57750000D03*
X136080000Y-57750000D03*
%TD*%
D19*
%TO.C,DO3*%
X168455000Y-124722500D03*
D20*
X173535000Y-124722500D03*
%TD*%
D16*
%TO.C,DRV5*%
X89000000Y-82260000D03*
D17*
X86460000Y-82260000D03*
X83920000Y-82260000D03*
X81380000Y-82260000D03*
X78840000Y-82260000D03*
X76300000Y-82260000D03*
X73760000Y-82260000D03*
X73760000Y-97500000D03*
X76300000Y-97500000D03*
X78840000Y-97500000D03*
X81380000Y-97500000D03*
X83920000Y-97500000D03*
X86460000Y-97500000D03*
X89000000Y-97500000D03*
%TD*%
D18*
%TO.C,RT0*%
X126170000Y-49750000D03*
X136330000Y-49750000D03*
%TD*%
D16*
%TO.C,DRV1*%
X115120000Y-50630000D03*
D17*
X112580000Y-50630000D03*
X110040000Y-50630000D03*
X107500000Y-50630000D03*
X104960000Y-50630000D03*
X102420000Y-50630000D03*
X99880000Y-50630000D03*
X99880000Y-65870000D03*
X102420000Y-65870000D03*
X104960000Y-65870000D03*
X107500000Y-65870000D03*
X110040000Y-65870000D03*
X112580000Y-65870000D03*
X115120000Y-65870000D03*
%TD*%
D16*
%TO.C,DRV2*%
X88620000Y-51130000D03*
D17*
X86080000Y-51130000D03*
X83540000Y-51130000D03*
X81000000Y-51130000D03*
X78460000Y-51130000D03*
X75920000Y-51130000D03*
X73380000Y-51130000D03*
X73380000Y-66370000D03*
X75920000Y-66370000D03*
X78460000Y-66370000D03*
X81000000Y-66370000D03*
X83540000Y-66370000D03*
X86080000Y-66370000D03*
X88620000Y-66370000D03*
%TD*%
D12*
%TO.C,L5*%
X79250000Y-120032500D03*
D13*
X74250000Y-120032500D03*
%TD*%
D15*
%TO.C,RD1*%
X120500000Y-31130000D03*
X120500000Y-46370000D03*
%TD*%
D16*
%TO.C,DRV3*%
X61120000Y-50630000D03*
D17*
X58580000Y-50630000D03*
X56040000Y-50630000D03*
X53500000Y-50630000D03*
X50960000Y-50630000D03*
X48420000Y-50630000D03*
X45880000Y-50630000D03*
X45880000Y-65870000D03*
X48420000Y-65870000D03*
X50960000Y-65870000D03*
X53500000Y-65870000D03*
X56040000Y-65870000D03*
X58580000Y-65870000D03*
X61120000Y-65870000D03*
%TD*%
D18*
%TO.C,C4*%
X56750000Y-77000000D03*
X49250000Y-77000000D03*
%TD*%
D11*
%TO.C,DI2*%
X185277500Y-102455000D03*
D10*
X185277500Y-107535000D03*
%TD*%
D12*
%TO.C,L6*%
X107000000Y-120032500D03*
D13*
X102000000Y-120032500D03*
%TD*%
D21*
%TO.C,A2*%
X181080000Y-27840000D03*
D22*
X176000000Y-30000000D03*
D23*
X178540000Y-30000000D03*
X181080000Y-30000000D03*
X183620000Y-30000000D03*
%TD*%
D12*
%TO.C,L3*%
X53250000Y-36250000D03*
D13*
X48250000Y-36250000D03*
%TD*%
D12*
%TO.C,SW1*%
X140250000Y-127032500D03*
D13*
X135250000Y-127032500D03*
%TD*%
D18*
%TO.C,RT5*%
X125920000Y-70500000D03*
X136080000Y-70500000D03*
%TD*%
%TO.C,C1*%
X110750000Y-44000000D03*
X103250000Y-44000000D03*
%TD*%
D24*
%TO.C,I2C1*%
X191000000Y-78080000D03*
D25*
X191000000Y-75540000D03*
X191000000Y-73000000D03*
X191000000Y-70460000D03*
X191000000Y-67920000D03*
%TD*%
D18*
%TO.C,RT3*%
X125920000Y-61800000D03*
X136080000Y-61800000D03*
%TD*%
D21*
%TO.C,A1*%
X183750000Y-35250000D03*
D22*
X178670000Y-37410000D03*
D23*
X181210000Y-37410000D03*
X183750000Y-37410000D03*
X186290000Y-37410000D03*
%TD*%
D16*
%TO.C,DRV6*%
X119870000Y-82630000D03*
D17*
X117330000Y-82630000D03*
X114790000Y-82630000D03*
X112250000Y-82630000D03*
X109710000Y-82630000D03*
X107170000Y-82630000D03*
X104630000Y-82630000D03*
X104630000Y-97870000D03*
X107170000Y-97870000D03*
X109710000Y-97870000D03*
X112250000Y-97870000D03*
X114790000Y-97870000D03*
X117330000Y-97870000D03*
X119870000Y-97870000D03*
%TD*%
D12*
%TO.C,Power1*%
X127250000Y-127032500D03*
D13*
X122250000Y-127032500D03*
%TD*%
D18*
%TO.C,C2*%
X83500000Y-43500000D03*
X76000000Y-43500000D03*
%TD*%
D15*
%TO.C,RD3*%
X64500000Y-31000000D03*
X64500000Y-46240000D03*
%TD*%
D11*
%TO.C,DI3*%
X185277500Y-88455000D03*
D10*
X185277500Y-93535000D03*
%TD*%
D18*
%TO.C,C6*%
X114750000Y-77000000D03*
X107250000Y-77000000D03*
%TD*%
D15*
%TO.C,RD4*%
X59000000Y-117620000D03*
X59000000Y-102380000D03*
%TD*%
D12*
%TO.C,L1*%
X109000000Y-36500000D03*
D13*
X104000000Y-36500000D03*
%TD*%
D19*
%TO.C,DO5*%
X163920000Y-32722500D03*
D20*
X169000000Y-32722500D03*
%TD*%
D18*
%TO.C,RT4*%
X125920000Y-66000000D03*
X136080000Y-66000000D03*
%TD*%
%TO.C,C3*%
X56000000Y-44000000D03*
X48500000Y-44000000D03*
%TD*%
%TO.C,RT1*%
X126170000Y-53800000D03*
X136330000Y-53800000D03*
%TD*%
D15*
%TO.C,RD2*%
X92500000Y-31630000D03*
X92500000Y-46870000D03*
%TD*%
D24*
%TO.C,S1*%
X128750000Y-102410000D03*
D25*
X128750000Y-99870000D03*
X128750000Y-97330000D03*
X128750000Y-94790000D03*
X128750000Y-92250000D03*
%TD*%
D24*
%TO.C,I2C0*%
X182000000Y-57460000D03*
D25*
X182000000Y-60000000D03*
X182000000Y-62540000D03*
X182000000Y-65080000D03*
X182000000Y-67620000D03*
%TD*%
D18*
%TO.C,C5*%
X83750000Y-77000000D03*
X76250000Y-77000000D03*
%TD*%
D19*
%TO.C,DO4*%
X153455000Y-124722500D03*
D20*
X158535000Y-124722500D03*
%TD*%
D26*
%TO.C,DO1*%
X185722500Y-121545000D03*
D10*
X185722500Y-116465000D03*
%TD*%
D21*
%TO.C,K1*%
X181210000Y-49160000D03*
D22*
X186290000Y-47000000D03*
D23*
X183750000Y-47000000D03*
X181210000Y-47000000D03*
X178670000Y-47000000D03*
%TD*%
D11*
%TO.C,DI1*%
X142000000Y-110000000D03*
D10*
X142000000Y-115080000D03*
%TD*%
D15*
%TO.C,RD5*%
X86000000Y-117370000D03*
X86000000Y-102130000D03*
%TD*%
D11*
%TO.C,DO2*%
X142027500Y-95955000D03*
D10*
X142027500Y-101035000D03*
%TD*%
M02*
